<svg 
 xmlns="http://www.w3.org/2000/svg"
 xmlns:xlink="http://www.w3.org/1999/xlink"
 width="36px" height="36px">
<path fill-rule="evenodd"  fill="rgb(255, 255, 255)"
 d="M29.012,35.499 L6.988,35.499 C3.339,35.499 0.381,32.542 0.381,28.892 L0.381,6.868 C0.381,3.219 3.339,0.261 6.988,0.261 L23.158,0.261 L18.744,4.666 L6.988,4.666 C5.772,4.666 4.786,5.652 4.786,6.868 L4.786,28.892 C4.786,30.109 5.772,31.094 6.988,31.094 L29.012,31.094 C30.229,31.094 31.214,30.109 31.214,28.892 L31.214,17.123 L35.619,12.719 L35.619,28.892 C35.619,32.542 32.662,35.499 29.012,35.499 ZM6.988,28.892 L9.341,20.274 L22.822,6.828 L29.128,12.980 L15.572,26.503 L6.988,28.892 ZM31.049,11.060 L24.723,4.928 L28.100,1.551 C29.818,-0.170 32.608,-0.170 34.329,1.551 C36.049,3.271 36.049,6.059 34.329,7.781 L31.049,11.060 Z"/>
</svg>
