<svg 
 xmlns="http://www.w3.org/2000/svg"
 xmlns:xlink="http://www.w3.org/1999/xlink"
 width="34px" height="29px">
<path fill-rule="evenodd"  fill="rgb(255, 255, 255)"
 d="M33.998,14.952 C33.998,17.773 33.592,20.089 32.774,21.912 C31.959,23.732 30.803,25.164 29.305,26.205 C27.811,27.244 26.016,27.970 23.932,28.381 C21.849,28.792 19.540,28.995 17.013,28.995 C14.475,28.995 12.155,28.792 10.056,28.381 C7.957,27.970 6.166,27.244 4.683,26.205 C3.197,25.164 2.048,23.732 1.229,21.912 C0.415,20.089 0.005,17.773 0.005,14.952 C0.005,13.564 0.230,12.217 0.689,10.918 C1.139,9.615 1.834,8.445 2.769,7.405 L2.712,7.331 L2.769,7.297 C2.573,6.824 2.438,6.335 2.371,5.824 C2.303,5.317 2.273,4.802 2.273,4.285 C2.273,3.981 2.280,3.641 2.307,3.259 C2.333,2.878 2.378,2.482 2.453,2.071 C2.528,1.660 2.622,1.275 2.739,0.916 C2.859,0.561 3.001,0.257 3.174,0.002 L3.317,0.002 C4.068,0.002 4.744,0.080 5.352,0.228 C5.960,0.380 6.538,0.591 7.094,0.865 C7.642,1.135 8.179,1.449 8.693,1.808 C9.211,2.163 9.767,2.530 10.368,2.904 C11.423,2.604 12.519,2.404 13.653,2.308 C14.790,2.212 15.909,2.160 17.013,2.160 C18.117,2.160 19.236,2.212 20.362,2.308 C21.488,2.404 22.596,2.604 23.673,2.904 C24.251,2.530 24.803,2.163 25.333,1.808 C25.858,1.449 26.391,1.135 26.932,0.865 C27.473,0.591 28.043,0.380 28.652,0.228 C29.260,0.080 29.939,0.002 30.686,0.002 L30.871,0.002 C31.017,0.243 31.152,0.547 31.265,0.909 C31.385,1.272 31.479,1.660 31.550,2.071 C31.625,2.482 31.681,2.878 31.715,3.259 C31.753,3.641 31.775,3.981 31.775,4.285 C31.775,4.802 31.737,5.317 31.663,5.824 C31.588,6.335 31.467,6.824 31.295,7.297 L31.295,7.331 L31.257,7.405 C32.188,8.445 32.879,9.615 33.330,10.918 C33.776,12.217 33.998,13.564 33.998,14.952 ZM22.810,13.427 C21.852,13.427 20.895,13.472 19.930,13.557 C18.965,13.642 18.004,13.683 17.050,13.683 C16.093,13.683 15.128,13.642 14.160,13.557 C13.191,13.472 12.230,13.427 11.268,13.427 C9.282,13.427 7.676,13.957 6.448,15.008 C5.220,16.058 4.608,17.613 4.608,19.672 C4.608,21.426 5.002,22.780 5.795,23.736 C6.587,24.690 7.597,25.394 8.832,25.841 C10.067,26.286 11.408,26.548 12.861,26.619 C14.317,26.693 15.714,26.730 17.050,26.730 C17.959,26.730 18.890,26.719 19.855,26.693 C20.820,26.671 21.758,26.593 22.682,26.467 C23.602,26.338 24.477,26.135 25.303,25.849 C26.132,25.568 26.853,25.157 27.465,24.624 C28.081,24.095 28.569,23.417 28.937,22.600 C29.305,21.785 29.493,20.786 29.493,19.597 C29.493,18.583 29.327,17.691 28.993,16.922 C28.663,16.155 28.201,15.511 27.615,14.989 C27.022,14.472 26.324,14.078 25.506,13.819 C24.691,13.561 23.793,13.427 22.810,13.427 ZM9.099,18.927 C9.099,18.128 9.260,17.447 9.587,16.877 C9.909,16.307 10.315,16.026 10.792,16.026 C11.268,16.026 11.678,16.307 12.016,16.877 C12.354,17.447 12.523,18.128 12.523,18.927 C12.523,19.727 12.354,20.404 12.016,20.967 C11.678,21.530 11.268,21.811 10.792,21.811 C10.315,21.811 9.909,21.530 9.587,20.967 C9.260,20.404 9.099,19.727 9.099,18.927 ZM17.013,25.642 C16.487,25.642 16.007,25.467 15.579,25.123 C15.147,24.779 14.835,24.324 14.640,23.754 C14.565,23.562 14.640,23.411 14.858,23.299 C15.053,23.228 15.203,23.306 15.301,23.536 C15.631,24.457 16.202,24.909 17.013,24.898 C17.392,24.898 17.741,24.772 18.053,24.524 C18.364,24.276 18.582,23.947 18.706,23.536 C18.804,23.295 18.965,23.214 19.183,23.299 C19.378,23.373 19.461,23.525 19.423,23.754 C19.228,24.324 18.913,24.779 18.485,25.123 C18.057,25.467 17.565,25.642 17.013,25.642 ZM18.098,21.740 C18.098,21.592 17.989,21.466 17.779,21.359 C17.561,21.248 17.306,21.193 17.013,21.193 C16.705,21.193 16.442,21.248 16.232,21.359 C16.014,21.466 15.909,21.592 15.909,21.740 C15.909,21.885 16.014,22.014 16.232,22.129 C16.442,22.244 16.705,22.303 17.013,22.303 C17.321,22.303 17.576,22.244 17.786,22.129 C17.996,22.014 18.098,21.885 18.098,21.740 ZM24.927,18.927 C24.927,18.128 24.762,17.447 24.432,16.877 C24.097,16.307 23.699,16.026 23.234,16.026 C22.757,16.026 22.344,16.307 21.999,16.877 C21.657,17.447 21.485,18.128 21.485,18.927 C21.485,19.727 21.657,20.404 21.999,20.967 C22.344,21.530 22.757,21.811 23.234,21.811 C23.711,21.811 24.112,21.530 24.439,20.967 C24.762,20.404 24.927,19.727 24.927,18.927 Z"/>
</svg>
