<svg 
 xmlns="http://www.w3.org/2000/svg"
 xmlns:xlink="http://www.w3.org/1999/xlink"
 width="30px" height="30px">
<path fill-rule="evenodd"  fill="rgb(255, 255, 255)"
 d="M3.605,-0.006 C4.098,-0.006 4.567,0.095 5.010,0.290 C5.456,0.490 5.844,0.752 6.181,1.076 C6.515,1.404 6.775,1.787 6.961,2.236 C7.144,2.682 7.237,3.154 7.237,3.655 C7.237,4.151 7.144,4.620 6.961,5.061 C6.775,5.499 6.515,5.886 6.181,6.210 C5.844,6.534 5.456,6.796 5.010,6.995 C4.567,7.195 4.098,7.292 3.605,7.292 C3.109,7.292 2.643,7.195 2.204,6.995 C1.770,6.796 1.386,6.534 1.064,6.210 C0.742,5.886 0.481,5.499 0.284,5.061 C0.086,4.620 -0.011,4.151 -0.011,3.655 C-0.011,3.154 0.086,2.682 0.284,2.236 C0.481,1.787 0.742,1.404 1.064,1.076 C1.386,0.752 1.770,0.490 2.204,0.290 C2.643,0.095 3.109,-0.006 3.605,-0.006 ZM6.305,9.458 C6.507,9.458 6.686,9.531 6.845,9.687 C7.004,9.840 7.085,10.023 7.085,10.242 L7.085,29.223 C7.085,29.426 7.004,29.610 6.845,29.770 C6.686,29.931 6.507,30.009 6.305,30.009 L0.959,30.009 C0.757,30.009 0.575,29.931 0.416,29.770 C0.261,29.610 0.179,29.426 0.179,29.223 L0.179,10.242 C0.179,10.039 0.261,9.855 0.416,9.695 C0.575,9.538 0.757,9.458 0.959,9.458 L6.305,9.458 L6.305,9.458 ZM22.035,8.976 C24.445,8.976 26.369,9.586 27.816,10.805 C29.264,12.028 29.985,13.899 29.985,16.427 L29.985,29.223 C29.985,29.426 29.904,29.610 29.748,29.770 C29.589,29.931 29.407,30.009 29.205,30.009 L23.707,30.009 C23.505,30.009 23.331,29.931 23.184,29.770 C23.040,29.610 22.966,29.426 22.966,29.223 L22.966,17.654 C22.966,16.685 22.792,15.942 22.442,15.431 C22.093,14.923 21.387,14.665 20.324,14.665 C19.649,14.665 19.086,14.779 18.628,15.001 C18.174,15.224 17.813,15.525 17.554,15.900 C17.294,16.279 17.115,16.729 17.014,17.251 C16.910,17.775 16.859,18.338 16.859,18.939 L16.859,29.223 C16.859,29.426 16.782,29.610 16.622,29.770 C16.463,29.931 16.285,30.009 16.079,30.009 L10.737,30.009 C10.535,30.009 10.352,29.931 10.193,29.770 C10.034,29.610 9.957,29.426 9.957,29.223 L9.957,10.242 C9.957,10.039 10.034,9.855 10.193,9.695 C10.352,9.538 10.535,9.458 10.737,9.458 L15.928,9.458 C16.347,9.458 16.580,9.617 16.630,9.945 C16.684,10.270 16.708,10.578 16.708,10.875 C17.429,10.196 18.252,9.711 19.171,9.418 C20.091,9.125 21.046,8.976 22.035,8.976 Z"/>
</svg>
