<svg 
 xmlns="http://www.w3.org/2000/svg"
 xmlns:xlink="http://www.w3.org/1999/xlink"
 width="30px" height="32px">
<path fill-rule="evenodd"  fill="rgb(255, 255, 255)"
 d="M28.989,20.010 C29.477,20.286 29.789,20.681 29.922,21.196 C30.055,21.710 29.988,22.211 29.723,22.696 L28.211,25.280 C27.931,25.768 27.527,26.074 26.994,26.206 C26.463,26.338 25.951,26.274 25.461,26.011 L18.514,22.011 L18.514,29.988 C18.514,30.558 18.319,31.033 17.927,31.417 C17.536,31.799 17.052,31.990 16.478,31.990 L13.520,31.990 C12.946,31.990 12.466,31.799 12.081,31.417 C11.696,31.033 11.505,30.571 11.505,30.031 L11.505,22.011 L4.537,26.011 C4.047,26.287 3.535,26.355 3.004,26.218 C2.471,26.078 2.067,25.768 1.786,25.280 L0.275,22.696 C0.025,22.211 -0.040,21.710 0.086,21.196 C0.213,20.681 0.521,20.286 1.011,20.010 L8.020,15.989 L1.011,11.969 C0.521,11.689 0.206,11.293 0.065,10.779 C-0.074,10.264 -0.004,9.767 0.275,9.279 L1.786,6.695 C2.067,6.210 2.471,5.900 3.004,5.768 C3.535,5.636 4.047,5.705 4.537,5.967 L11.505,9.967 L11.505,1.986 C11.505,1.417 11.696,0.945 12.081,0.562 C12.466,0.180 12.946,-0.011 13.520,-0.011 L16.478,-0.011 C17.052,-0.011 17.536,0.180 17.927,0.562 C18.319,0.945 18.514,1.404 18.514,1.948 L18.514,9.967 L25.461,5.967 C25.951,5.718 26.463,5.653 26.994,5.780 C27.527,5.905 27.931,6.210 28.211,6.695 L29.680,9.279 C29.961,9.767 30.038,10.264 29.911,10.779 C29.785,11.293 29.477,11.689 28.989,11.969 L21.999,15.989 L28.989,20.010 L28.989,20.010 Z"/>
</svg>
