<svg 
 xmlns="http://www.w3.org/2000/svg"
 xmlns:xlink="http://www.w3.org/1999/xlink"
 width="80px" height="56px">
<path fill-rule="evenodd"  fill="rgb(255, 255, 255)"
 d="M77.345,24.008 C78.008,23.893 78.619,24.008 79.168,24.332 C79.717,24.658 79.991,25.211 79.991,25.995 C79.991,26.821 79.611,27.541 78.840,28.148 C78.071,28.745 77.185,29.283 76.176,29.757 C75.158,30.232 74.105,30.601 73.025,30.865 C71.945,31.120 71.095,31.278 70.493,31.339 C69.245,35.331 67.325,38.865 64.722,41.933 C62.111,45.011 59.076,47.577 55.606,49.627 C52.135,51.684 48.400,53.258 44.408,54.347 C40.416,55.446 36.442,55.992 32.477,55.992 C26.148,55.992 20.138,54.647 14.464,51.956 C8.799,49.275 4.098,45.345 0.372,40.166 C0.142,39.709 0.018,39.340 0.018,39.051 C0.018,38.478 0.213,37.995 0.602,37.608 C0.992,37.212 1.488,37.019 2.054,37.019 C2.461,37.019 2.913,37.195 3.399,37.538 C6.958,40.676 11.118,42.223 15.862,42.197 C17.562,42.197 19.261,41.978 20.961,41.547 C22.651,41.116 24.200,40.430 25.617,39.481 C24.785,39.023 24.094,38.416 23.563,37.669 C23.023,36.922 22.757,36.087 22.757,35.173 C22.757,34.512 22.872,33.950 23.103,33.484 C22.590,33.317 21.934,33.027 21.173,32.606 C20.412,32.192 19.668,31.699 18.960,31.146 C18.253,30.583 17.659,29.969 17.181,29.283 C16.703,28.614 16.464,27.946 16.464,27.287 C16.464,26.821 16.606,26.416 16.897,26.055 C17.190,25.696 17.553,25.378 17.987,25.089 C16.800,24.367 15.703,23.304 14.685,21.897 C13.676,20.490 13.171,19.084 13.171,17.676 C13.171,16.728 13.649,16.112 14.605,15.822 C13.587,14.811 12.782,13.651 12.198,12.332 C11.596,11.013 11.304,9.641 11.304,8.235 C11.304,7.575 11.436,6.978 11.720,6.442 C11.986,5.914 12.534,5.650 13.340,5.650 C13.862,5.650 15.084,6.037 16.986,6.810 C18.890,7.584 20.961,8.454 23.173,9.421 C25.387,10.380 27.502,11.356 29.529,12.332 C31.547,13.308 32.963,13.994 33.778,14.398 C34.503,14.802 35.194,15.250 35.840,15.752 C36.486,16.252 37.133,16.780 37.770,17.326 C38.345,15.866 39.035,14.336 39.815,12.736 C40.593,11.144 41.461,9.614 42.417,8.146 C43.372,6.687 44.426,5.298 45.586,4.015 C46.736,2.713 48.028,1.658 49.445,0.823 C49.675,0.647 50.020,0.560 50.489,0.560 C51.002,0.560 51.392,0.674 51.658,0.903 C52.118,0.735 52.720,0.542 53.463,0.322 C54.189,0.111 54.809,0.006 55.305,0.006 C56.136,0.006 56.756,0.392 57.163,1.166 C58.066,1.166 58.881,1.395 59.624,1.835 C60.350,2.283 60.721,3.003 60.721,4.015 C60.721,4.902 60.332,5.667 59.553,6.292 C62.332,7.531 64.633,9.325 66.475,11.681 C68.316,14.037 69.626,16.657 70.405,19.524 C70.573,19.584 70.901,19.612 71.396,19.612 C72.759,19.612 74.035,19.373 75.220,18.899 C76.407,18.423 77.230,18.187 77.690,18.187 C78.212,18.187 78.673,18.398 79.061,18.811 C79.451,19.233 79.646,19.699 79.646,20.218 C79.646,20.877 79.362,21.571 78.796,22.302 C78.229,23.040 77.752,23.602 77.345,24.008 Z"/>
</svg>
